HIERARCHY
ROOT Hips
{
	OFFSET 0.000000 0.000000 0.000000
	CHANNELS 6 Xposition Yposition Zposition Zrotation Yrotation Xrotation 
	JOINT LHipJoint
	{
		OFFSET 0.000000 0.000000 0.000000
		CHANNELS 3 Zrotation Yrotation Xrotation
		JOINT LeftUpLeg
		{
			OFFSET 1.363060 -1.794630 0.839290
			CHANNELS 3 Zrotation Yrotation Xrotation
			JOINT LeftLeg
			{
				OFFSET 2.448110 -6.726130 0.000000
				CHANNELS 3 Zrotation Yrotation Xrotation
				JOINT LeftFoot
				{
					OFFSET 2.562200 -7.039590 0.000000
					CHANNELS 3 Zrotation Yrotation Xrotation
					JOINT LeftToeBase
					{
						OFFSET 0.157640 -0.433110 2.322550
						CHANNELS 3 Zrotation Yrotation Xrotation
						End Site
						{
							OFFSET 0.000000 0.000000 0.000000
						}
					}
				}
			}
		}
	}
	JOINT RHipJoint
	{
		OFFSET 0.000000 0.000000 0.000000
		CHANNELS 3 Zrotation Yrotation Xrotation
		JOINT RightUpLeg
		{
			OFFSET -1.305520 -1.794630 0.839290
			CHANNELS 3 Zrotation Yrotation Xrotation
			JOINT RightLeg
			{
				OFFSET -2.542530 -6.985550 0.000000
				CHANNELS 3 Zrotation Yrotation Xrotation
				JOINT RightFoot
				{
					OFFSET -2.568260 -7.056230 0.000000
					CHANNELS 3 Zrotation Yrotation Xrotation
					JOINT RightToeBase
					{
						OFFSET -0.164730 -0.452590 2.363150
						CHANNELS 3 Zrotation Yrotation Xrotation
						End Site
						{
							OFFSET 0.000000 0.000000 0.000000
						}
					}
				}
			}
		}
	}
}
MOTION
Frames: 33
Frame Time: 0.008333
21.641764 15.731162 1.982299 149.813745 -86.874935 -107.197656 -6.461737 -1.081240 2.642789 -9.498182 -14.203019 -77.729994 -1.298185 2.341907 46.977801 2.886384 9.156510 -14.725254 -0.561700 -0.000000 -27.314200 12.702909 -1.202659 -2.995662 4.976459 -2.748092 -22.560581 -0.222992 -2.885300 47.785881 -2.910880 -16.017044 2.958804 -3.279900 0.000000 -49.118800
21.439113 15.622936 1.991843 147.965396 -86.863759 -105.633713 -6.440305 -1.182003 2.303472 -9.918812 -14.216823 -78.031011 -1.074820 2.629298 50.446657 2.964056 9.352681 -16.086492 -0.888900 0.000000 -25.695400 12.820775 -1.114613 -3.157201 4.771758 -2.976836 -23.371174 -0.326563 -3.136649 51.051337 -2.951528 -16.171433 1.138599 -2.811700 -0.000000 -47.703700
21.237754 15.520612 2.000487 145.513704 -86.840815 -103.488046 -6.408279 -1.250776 1.959629 -10.424347 -14.241281 -78.106507 -0.893778 2.876059 53.604340 3.046700 9.530153 -17.638561 -1.263100 0.000001 -24.388601 12.953635 -1.010647 -3.326339 4.529522 -3.183318 -24.200871 -0.443480 -3.390092 54.249448 -2.937847 -16.021745 -0.542795 -2.316900 -0.000000 -46.553499
21.037048 15.425882 2.008577 142.597521 -86.801201 -100.891556 -6.372230 -1.285220 1.617127 -11.001936 -14.274468 -77.951886 -0.753867 3.085228 56.420256 3.137062 9.699956 -19.341624 -1.677000 -0.000000 -23.431799 13.094425 -0.889853 -3.499246 4.260690 -3.359972 -25.062723 -0.574192 -3.641961 57.366949 -2.877250 -15.612347 -2.083122 -1.831200 0.000001 -45.616800
20.836553 15.340055 2.016600 139.389326 -86.740857 -98.008415 -6.340018 -1.287304 1.282369 -11.631388 -14.312279 -77.571421 -0.651635 3.259539 58.878102 3.236461 9.873175 -21.140057 -2.121200 -0.000000 -22.843000 13.234365 -0.753050 -3.671698 3.977617 -3.502288 -25.971137 -0.718127 -3.889223 60.393085 -2.780027 -15.000728 -3.490616 -1.380200 -0.000000 -44.807800
20.635707 15.264041 2.025120 136.074215 -86.659057 -95.016133 -6.319553 -1.263268 0.960684 -12.287197 -14.348542 -76.979661 -0.582185 3.401557 60.975990 3.344416 10.058948 -22.970130 -2.584600 0.000000 -22.611200 13.363938 -0.602411 -3.840266 3.694905 -3.607533 -26.940474 -0.874033 -4.129797 63.319061 -2.658583 -14.255133 -4.779371 -0.979700 -0.000000 -44.031700
20.433783 15.198411 2.034602 132.812500 -86.558701 -92.069375 -6.317589 -1.220017 0.660156 -12.942907 -14.377675 -76.198110 -0.540060 3.513262 62.722130 3.458895 10.263104 -24.767973 -3.055400 0.000000 -22.694600 13.475222 -0.442149 -3.998600 3.426372 -3.675645 -27.984008 -1.040318 -4.361566 66.135276 -2.526131 -13.448736 -5.965176 -0.636600 0.000000 -43.202800
20.230524 15.143449 2.045616 129.736453 -86.448036 -89.292511 -6.338922 -1.166764 0.384674 -13.570478 -14.393227 -75.255386 -0.519486 3.596693 64.135947 3.576521 10.488177 -26.476771 -3.522201 -0.000000 -23.021900 13.561526 -0.275840 -4.143838 3.187437 -3.707638 -29.112118 -1.214910 -4.583327 68.831926 -2.395530 -12.653852 -7.063889 -0.350500 0.000001 -42.264200
20.025688 15.099200 2.058591 126.925282 -86.337796 -86.760148 -6.385961 -1.111567 0.137337 -14.145504 -14.389326 -74.183526 -0.515205 3.654061 65.243441 3.693326 10.733139 -28.052037 -3.974400 0.000000 -23.501700 13.618459 -0.106575 -4.273112 2.991888 -3.705925 -30.332495 -1.395593 -4.793907 71.398394 -2.277921 -11.934059 -8.088832 -0.115300 0.000000 -41.196800
19.819012 15.065590 2.073692 124.410606 -86.238126 -84.501509 -6.458958 -1.059216 -0.077830 -14.651376 -14.361388 -73.013443 -0.523150 3.687707 66.073480 3.805324 10.992306 -29.465398 -4.403199 0.000000 -24.037900 13.644274 0.062742 -4.381446 2.849081 -3.673555 -31.649054 -1.579849 -4.991562 73.821823 -2.181865 -11.338681 -9.050537 0.078501 0.000000 -40.016401
19.610232 15.042366 2.090911 122.188669 -86.158867 -82.509787 -6.556290 -1.012854 -0.259968 -15.077472 -14.305021 -71.773901 -0.540577 3.700209 66.654995 3.908883 11.256206 -30.704223 -4.801100 0.000000 -24.546700 13.638686 0.230692 -4.465966 2.765728 -3.613240 -33.061335 -1.764544 -5.174716 76.087681 -2.112752 -10.898362 -9.956553 0.241699 -0.000000 -38.765500
19.399576 15.029370 2.110163 120.235151 -86.108610 -80.757237 -6.675130 -0.974911 -0.413046 -15.418200 -14.214830 -70.487923 -0.566214 3.694243 67.013815 4.000954 11.512475 -31.770180 -5.162500 0.000001 -24.968400 13.601875 0.397604 -4.527447 2.746552 -3.526781 -34.565145 -1.945714 -5.342324 78.179132 -2.072601 -10.622988 -10.811872 0.385000 0.000000 -37.495900
19.186992 15.026411 2.130959 118.492796 -86.089689 -79.189972 -6.811626 -0.943131 -0.537281 -15.679259 -14.087593 -69.168753 -0.600535 3.672039 67.167980 4.079682 11.746837 -32.676339 -5.483800 0.000000 -25.273600 13.535928 0.562884 -4.562543 2.788428 -3.417452 -36.151175 -2.118936 -5.492797 80.077917 -2.060151 -10.501998 -11.619565 0.517200 0.000000 -36.260700
18.972593 15.033412 2.152890 116.898946 -86.103460 -77.746157 -6.961616 -0.916047 -0.638757 -15.868459 -13.919001 -67.820620 -0.645103 3.635311 67.127886 4.143734 11.944598 -33.441917 -5.762100 0.000001 -25.460600 13.442447 0.727297 -4.573313 2.887025 -3.287540 -37.805290 -2.278984 -5.625534 81.763805 -2.071332 -10.507553 -12.380387 0.644100 0.000000 -35.103900
18.756441 15.050375 2.175277 115.375249 -86.144641 -76.354546 -7.121164 -0.889599 -0.720288 -16.000029 -13.706338 -66.436914 -0.702456 3.584906 66.894228 4.192773 12.092857 -34.088513 -5.996400 -0.000000 -25.548300 13.323637 0.890092 -4.559010 3.032462 -3.141024 -39.508663 -2.420309 -5.739716 83.215484 -2.099756 -10.598215 -13.094261 0.768100 -0.000000 -34.056900
18.538680 15.077337 2.197635 113.842709 -86.208476 -74.938940 -7.286969 -0.861917 -0.790343 -16.086736 -13.446661 -65.003224 -0.775174 3.520872 66.460626 4.226516 12.181349 -34.634162 -6.185700 0.000000 -25.574400 13.180654 1.051320 -4.525007 3.214840 -2.981310 -41.238199 -2.537248 -5.835680 84.412622 -2.137467 -10.724588 -13.758835 0.888101 -0.000000 -33.145000
18.318763 15.114483 2.219376 112.213400 -86.285085 -73.422373 -7.456680 -0.829861 -0.852667 -16.142843 -13.138952 -63.497732 -0.865608 3.442274 65.813141 4.244970 12.203595 -35.089674 -6.328800 0.000000 -25.583400 13.014897 1.208817 -4.473151 3.421362 -2.813424 -42.967293 -2.624506 -5.913333 85.335419 -2.175844 -10.835119 -14.369847 1.000300 0.000000 -32.384300
18.096959 15.161884 2.240182 110.405281 -86.366242 -71.728658 -7.628870 -0.792584 -0.913671 -16.178095 -12.782997 -61.897106 -0.974845 3.347533 64.936175 4.247831 12.157823 -35.455545 -6.424300 -0.000000 -25.625700 12.827278 1.360490 -4.408991 3.640668 -2.642215 -44.667772 -2.677415 -5.973305 85.967635 -2.206376 -10.881186 -14.921528 1.098700 0.000000 -31.788300
17.872597 15.219599 2.259782 108.346215 -86.443434 -69.792937 -7.803072 -0.749715 -0.976615 -16.199303 -12.380513 -60.179457 -1.102446 3.234519 63.814097 4.234220 12.045352 -35.720084 -6.469001 0.000000 -25.749800 12.618940 1.502937 -4.335968 3.862090 -2.472329 -46.312725 -2.692468 -6.016086 86.297236 -2.221677 -10.822615 -15.405952 1.176100 -0.000000 -31.362601
17.640300 15.283639 2.290219 93.603382 -86.387862 -55.017400 -8.235403 -0.837716 -0.765694 -15.663240 -12.731607 -58.671951 -1.179961 3.086253 62.550400 4.176422 11.876151 -35.711456 -6.401700 -0.000000 -26.305100 12.095639 1.524459 -4.432554 4.579954 -2.982108 -48.023355 -2.617123 -6.036222 86.260605 -2.232026 -10.677369 -15.871942 1.245601 0.000000 -30.969000
17.410046 15.361506 2.307386 90.152390 -86.383035 -51.717725 -8.423043 -0.810554 -0.834938 -15.653781 -12.265492 -56.687102 -1.330475 2.923555 60.932293 4.124867 11.647174 -35.700385 -6.334600 -0.000000 -26.715800 11.845754 1.614982 -4.347109 4.788978 -2.838301 -49.510335 -2.550114 -6.061541 85.971161 -2.203445 -10.340883 -16.193927 1.263500 0.000001 -30.880001
17.176133 15.448885 2.323545 86.303450 -86.357055 -48.038924 -8.610374 -0.784926 -0.907956 -15.616306 -11.767768 -54.569772 -1.483952 2.735854 59.067050 4.051356 11.373677 -35.496649 -6.204300 0.000000 -27.319600 11.584728 1.683709 -4.257458 4.990703 -2.704826 -50.890957 -2.443242 -6.074443 85.375150 -2.151219 -9.864660 -16.419326 1.246900 0.000000 -30.946000
16.938200 15.544951 2.338921 82.047179 -86.311296 -43.964468 -8.796715 -0.762622 -0.981609 -15.537988 -11.245612 -52.340479 -1.632024 2.523826 56.976088 3.953345 11.065031 -35.060979 -6.007000 0.000000 -28.143500 11.316650 1.728523 -4.161855 5.189154 -2.579525 -52.163085 -2.298820 -6.075804 84.483040 -2.078425 -9.270085 -16.541938 1.197600 -0.000000 -31.147000
16.696123 15.648849 2.353815 77.350395 -86.248661 -39.454207 -8.980977 -0.745064 -1.051430 -15.403707 -10.707169 -50.033289 -1.765614 2.290224 54.692749 3.828382 10.729578 -34.355487 -5.739300 0.000000 -29.220400 11.045623 1.748474 -4.056794 5.392520 -2.457640 -53.334198 -2.120237 -6.066435 83.308508 -1.990740 -8.592184 -16.558398 1.121000 0.000000 -31.467401
16.449348 15.759471 2.368464 72.170150 -86.172329 -34.449779 -9.161212 -0.731764 -1.111848 -15.198804 -10.161117 -47.693318 -1.875983 2.039820 52.262003 3.674437 10.372710 -33.347800 -5.399600 -0.000000 -30.587001 10.776817 1.743701 -3.936839 5.610274 -2.332556 -54.418420 -1.911325 -6.046855 81.866559 -1.895758 -7.875450 -16.471009 1.025400 -0.000000 -31.900300
16.198009 15.875730 2.382936 66.459180 -86.084098 -28.891983 -9.333392 -0.719995 -1.157850 -14.911694 -9.615382 -45.372522 -1.955965 1.779885 49.736541 3.490344 9.996923 -32.013245 -4.987700 -0.000000 -32.286000 10.516598 1.716775 -3.796018 5.851544 -2.196139 -55.433096 -1.676136 -6.017126 80.171584 -1.801895 -7.167977 -16.286841 0.920100 0.000000 -32.450900
15.941870 15.996448 2.397183 60.211773 -85.986314 -22.758999 -9.491595 -0.703666 -1.185609 -14.534360 -9.074865 -43.126435 -2.001402 1.520074 47.172480 3.275885 9.600204 -30.336758 -4.505300 -0.000000 -34.368500 10.272521 1.673445 -3.628292 6.124085 -2.037747 -56.396121 -1.418369 -5.975706 78.234124 -1.717384 -6.515628 -16.017172 0.813700 -0.000000 -33.144901
15.681296 16.120509 2.410932 53.519950 -85.881430 -16.130933 -9.630077 -0.673049 -1.192389 -14.067034 -8.540601 -41.005674 -2.012396 1.272334 44.624667 3.032424 9.177945 -28.316231 -3.958301 -0.000000 -36.860400 10.051540 1.622856 -3.428421 6.429672 -1.846310 -57.319286 -1.141658 -5.918387 76.061567 -1.649178 -5.955862 -15.677458 0.712899 -0.000000 -34.006599
15.416530 16.246825 2.423761 46.603106 -85.775086 -9.217197 -9.747360 -0.617621 -1.177577 -13.517056 -8.010074 -39.054179 -1.993538 1.049860 42.138433 2.762852 8.723677 -25.959232 -3.356700 0.000000 -39.779900 9.855616 1.576694 -3.194113 6.764546 -1.609493 -58.208031 -0.849578 -5.837564 73.654952 -1.602311 -5.513859 -15.283031 0.621000 0.000000 -35.068400
15.147752 16.374466 2.435155 39.822406 -85.672544 -2.374460 -9.851659 -0.530090 -1.142105 -12.904119 -7.478176 -37.298633 -1.952849 0.864199 39.746897 2.472474 8.230520 -23.289337 -2.717401 0.000000 -43.055099 9.677920 1.543342 -2.925826 7.115577 -1.320111 -59.058236 -0.545428 -5.724144 71.011278 -1.579054 -5.197104 -14.852684 0.538300 0.000001 -36.320399
14.876032 16.502317 2.444608 33.468632 -85.569238 4.106054 -9.960178 -0.413393 -1.089808 -12.246970 -6.943789 -35.750472 -1.896518 0.721928 37.475226 2.168244 7.692877 -20.330272 -2.061701 0.000000 -46.697000 9.503533 1.521322 -2.626523 7.467549 -0.973980 -59.857984 -0.232375 -5.571004 68.118463 -1.580203 -5.006504 -14.386430 0.460800 -0.000000 -37.822100
14.601283 16.629477 2.451525 27.909371 -85.458719 9.852023 -10.089664 -0.275590 -1.026396 -11.576283 -6.404757 -34.395174 -1.830429 0.621999 35.329987 1.860807 7.106433 -17.131481 -1.419900 0.000000 -50.447900 9.318663 1.500468 -2.299108 7.800290 -0.583157 -60.588736 0.090257 -5.376424 64.963163 -1.601873 -4.914325 -13.903229 0.384600 -0.000000 -39.460801
14.324359 16.754920 2.455557 23.263292 -85.327952 14.731335 -10.248055 -0.129523 -0.961105 -10.910539 -5.862832 -33.205947 -1.756595 0.558664 33.313857 1.561824 6.471114 -13.742808 -0.823600 0.000001 -54.141099 9.116805 1.466904 -1.946346 8.100890 -0.158161 -61.225973 0.424339 -5.141358 61.526217 -1.638834 -4.891818 -13.400839 0.303500 -0.000000 -41.184500
